<svg id="Layer_1" data-name="Layer 1" xmlns="http://www.w3.org/2000/svg" viewBox="0 0 902.83 240.4"><defs><style>.cls-1{fill:#326ce5;}.cls-2{fill:#fff;stroke:#fff;stroke-width:0.25px;}</style></defs><title>Artboard 1</title><path class="cls-1" d="M151.83,231.25s4.11-19.87,21.31-43.72c12-6.9,23.94-15.37,34.1-25.52,9.38-46.55-4.87-96.5-4.87-96.5s-50-14.25-96.5-4.86C95.71,70.8,87.26,82.79,80.35,94.74c-23.86,17.2-43.72,21.31-43.72,21.31S52.52,127,60.18,139.34c-3.26,9.42-4.8,15.49-4.8,15.49,1.25,5.81,4.92,12.59,10,19.43a83.77,83.77,0,0,1-12.08,8.08c-.53.3-1.08.58-1.62.85,3.83,12.64,20.75,28.55,33.07,32.84.25-.5.51-1,.77-1.47a85.85,85.85,0,0,1,8.32-12.36c6.9,5,13.65,8.74,19.21,10.29,0,0,6.08-1.53,15.49-4.8C140.92,215.36,151.83,231.25,151.83,231.25Z"/><g id="g3052"><path id="path3059" class="cls-2" d="M136.48,83.71a2.9,2.9,0,0,0-2.74,3.05v.07c0,.23,0,.51,0,.71a20.86,20.86,0,0,0,.37,2.6,25.76,25.76,0,0,1,.31,5,3,3,0,0,1-.89,1.42l-.07,1.16a37.21,37.21,0,0,0-5,.76,35.34,35.34,0,0,0-17.92,10.24c-.31-.2-.84-.58-1-.7a2.18,2.18,0,0,1-1.63-.16,25.79,25.79,0,0,1-3.7-3.34,23,23,0,0,0-1.81-1.92l-.61-.48a3.29,3.29,0,0,0-1.91-.73,2.71,2.71,0,0,0-2.19,1,2.92,2.92,0,0,0,.68,4l0,0c.18.14.4.33.57.45a20.58,20.58,0,0,0,2.27,1.33,26.35,26.35,0,0,1,4.08,2.87,3,3,0,0,1,.55,1.58l.88.79a35.51,35.51,0,0,0-5.59,24.75l-1.15.33c-.31.39-.73,1-1.18,1.19a25.09,25.09,0,0,1-4.92.81,22,22,0,0,0-2.63.21l-.73.17h-.07a2.75,2.75,0,1,0,1.22,5.34h0l0,0c.23-.05.51-.1.71-.16a23.91,23.91,0,0,0,2.47-.94,25.35,25.35,0,0,1,4.78-1.41,3.06,3.06,0,0,1,1.58.56l1.19-.21a35.73,35.73,0,0,0,15.82,19.76l-.5,1.19a2.77,2.77,0,0,1,.25,1.55,27.21,27.21,0,0,1-2.49,4.47,24.54,24.54,0,0,0-1.47,2.19c-.11.21-.24.52-.35.74a2.75,2.75,0,1,0,5,2.35h0c.1-.22.25-.5.34-.7a21.44,21.44,0,0,0,.79-2.52c.73-1.82,1.13-3.73,2.13-4.92a2.16,2.16,0,0,1,1.18-.58l.62-1.12A35.52,35.52,0,0,0,144.47,168a36.65,36.65,0,0,0,4.71-1.42c.17.31.49.9.58,1.05a2.24,2.24,0,0,1,1.4.85,25.25,25.25,0,0,1,1.88,4.62,24.18,24.18,0,0,0,.8,2.51c.09.21.24.49.34.71a2.76,2.76,0,1,0,5-2.35c-.1-.22-.25-.53-.36-.74a22.4,22.4,0,0,0-1.47-2.18,25.59,25.59,0,0,1-2.43-4.36,2.19,2.19,0,0,1,.21-1.62,10.25,10.25,0,0,1-.46-1.1A35.75,35.75,0,0,0,170.45,144l1.17.21a2.12,2.12,0,0,1,1.54-.57,25.69,25.69,0,0,1,4.78,1.4,21,21,0,0,0,2.46,1c.2.06.48.11.71.16h.09a2.75,2.75,0,1,0,1.22-5.35c-.23,0-.57-.14-.79-.18a22.3,22.3,0,0,0-2.64-.21,26.71,26.71,0,0,1-4.91-.81,3.13,3.13,0,0,1-1.19-1.19l-1.11-.33a35.63,35.63,0,0,0-5.71-24.69l1-.87a2.18,2.18,0,0,1,.52-1.55,25.05,25.05,0,0,1,4.08-2.87,22.42,22.42,0,0,0,2.28-1.33l.6-.49A2.76,2.76,0,1,0,171.1,102l-.61.49a23.08,23.08,0,0,0-1.81,1.92,25.2,25.2,0,0,1-3.7,3.34,3.06,3.06,0,0,1-1.66.19l-1,.74a35.92,35.92,0,0,0-22.78-11c0-.37-.05-1-.06-1.23a2.15,2.15,0,0,1-.9-1.37,25.76,25.76,0,0,1,.31-5,22.88,22.88,0,0,0,.38-2.6c0-.23,0-.55,0-.78a2.91,2.91,0,0,0-2.74-3.05ZM133,105l-.81,14.39-.06,0a2.42,2.42,0,0,1-3.84,1.85h0l-11.8-8.37a28.22,28.22,0,0,1,13.61-7.41A27.43,27.43,0,0,1,133,105Zm6.88,0a28.49,28.49,0,0,1,16.44,7.92l-11.73,8.31h0a2.42,2.42,0,0,1-3.84-1.85h0Zm-27.69,13.29L123,127.92V128a2.41,2.41,0,0,1,.31,3.32,2.44,2.44,0,0,1-1.26.83v.05l-13.81,4A28.26,28.26,0,0,1,112.23,118.28Zm48.42,0a28.74,28.74,0,0,1,4.14,17.83l-13.88-4,0-.06a2.41,2.41,0,0,1-1.71-2.87,2.33,2.33,0,0,1,.76-1.28v0l10.71-9.59Zm-26.38,10.37h4.41l2.75,3.43-1,4.28-4,1.9-4-1.91-1-4.28Zm14.15,11.74a2.12,2.12,0,0,1,.56,0l0,0,14.29,2.41a28.33,28.33,0,0,1-11.44,14.37L146.3,143.8l0,0a2.41,2.41,0,0,1,1.17-3.13,2.25,2.25,0,0,1,.93-.24Zm-24,.06a2.41,2.41,0,0,1,2.32,1.88,2.36,2.36,0,0,1-.14,1.49l0,0-5.49,13.26a28.36,28.36,0,0,1-11.4-14.27l14.16-2.4,0,0a2,2,0,0,1,.48,0Zm12,5.8a2.44,2.44,0,0,1,2.22,1.28h0l7,12.61c-.9.3-1.84.56-2.79.78a28.31,28.31,0,0,1-15.48-.8l7-12.59h0A2.41,2.41,0,0,1,136.39,146.26Z"/></g><path d="M271.15,84h18.49l1.9,23.93h.82c9-16.59,22.56-27.19,37.52-27.19A32.8,32.8,0,0,1,344,83.49l-4.34,19.58a37,37,0,0,0-12.78-2.18c-11.15,0-24.47,8.15-33.45,30.45v84.83H271.15Z"/><path d="M361.59,22.48h22.06V153.76h.82L440.85,84h24.79l-44.4,53.12,50.39,79.27H447.12l-38.68-63.74-24.79,28.87v34.87H361.59Z"/><path d="M498.59,175.34V102.19H479V85.33L499.67,84l2.72-37h18.77V84h35.62v18.22H521.16v73.42c0,16.32,5.17,25.57,20.39,25.57,4.62,0,10.61-1.91,15-3.54l4.35,16.86c-7.34,2.45-16.32,4.89-24.47,4.89C508.1,219.39,498.59,201.45,498.59,175.34Z"/><path d="M582.52,189.47v-167h22.31V191.11c0,7.07,3,9.79,6.25,9.79a18.58,18.58,0,0,0,4.9-.55l3,16.87c-3,1.36-6.8,2.17-12.78,2.17C589.32,219.39,582.52,208.78,582.52,189.47Z"/><path d="M641,150.35c0-43.22,29.09-69.58,59.26-69.58C734,80.77,753,105,753,142.74a85.47,85.47,0,0,1-.82,12.78H663c1.63,28,18.76,45.94,44,45.94,12.5,0,23.1-4.08,32.88-10.34l7.88,14.68c-11.41,7.34-25.55,13.59-43.48,13.59C669,219.39,641,193.57,641,150.35Zm92.42-10.87c0-26.64-12-41-32.62-41-18.48,0-35.34,15-38,41Z"/><path d="M785.46,175.34V102.19H765.88V85.33L786.55,84l2.72-37H808V84h35.62v18.22H808v73.42c0,16.32,5.17,25.57,20.4,25.57,4.62,0,10.6-1.91,15-3.54l4.35,16.86c-7.34,2.45-16.31,4.89-24.47,4.89C795,219.39,785.46,201.45,785.46,175.34Z"/></svg>